<svg version="1.0" xmlns="http://www.w3.org/2000/svg" width="666.667" height="666.667" viewBox="0 0 500 500"><g fill="#0262BF"><path d="M226.8 94.6c-.3.3-3.2.9-6.4 1.5-12.1 1.9-16.1 2.8-24.9 5.8-29 9.6-51.5 24.3-71.3 46.4-17.9 20-33.5 51.3-37.3 74.7l-2 12c-1.7 10.5-2.2 25.9-1 33.8 4.1 26.5 7.8 39.7 16.3 57.2 19.2 39.6 55.2 70.3 97.3 82.8 17.9 5.4 27.4 6.7 47.5 6.6 15-.1 20.6-.5 29.5-2.4 17.2-3.5 36.6-10.4 46.7-16.7 2.1-1.3 4-2.3 4.3-2.3.8 0 13.3-8.8 20.2-14.2 15-11.8 32.8-33.7 41.8-51.5 4.2-8.4 10.5-24.1 10.5-26.3 0-.8.7-3.5 1.6-6 2.8-7.8 5.4-28.6 5.3-42-.2-20.5.7-20.1-13.6-5.8l-12.2 12.3-.7 8c-3.3 41.2-29.2 81.5-65.9 102.8-44.6 25.9-99.6 24.5-141.9-3.7-36.5-24.4-58.4-62.5-60.2-105.1-1.6-35.3 7.6-64.6 28.5-91 29.6-37.6 77.7-56.9 124.1-50 27.6 4.2 50.5 14.7 69.8 32l5.4 4.8 9.1-9.1 9.1-9.1-2-2.2c-3.1-3.5-15.4-13.1-22.9-18-15.8-10.3-40.4-20.1-57.5-22.9-4.1-.7-9.1-1.6-11-2.1-3.8-1-35.3-1.3-36.2-.3z"/><path d="M413 111.7c-9.3 3.4-11.2 5.2-86.2 80.1L251 267.4l-29.7-29.5c-27.7-27.5-30.2-29.8-35.8-31.9-9-3.3-18.2-3.1-26.5.7-13.7 6.3-20.4 17-20.3 32.3.1 14-.1 13.8 47.7 61.9 23.1 23.3 44.1 43.6 46.5 45.2 2.4 1.5 7.6 3.5 11.6 4.4 6.6 1.5 7.7 1.5 14 0 3.8-.9 9-2.9 11.5-4.5 7.2-4.7 180.2-178.6 183.3-184.4 2.5-4.4 2.7-5.8 2.7-16.2 0-10.3-.2-11.8-2.6-16.1-6.2-11.6-17.7-18.4-31.2-18.2-4.2 0-8.4.3-9.2.6z"/></g></svg>