<svg version="1.0" xmlns="http://www.w3.org/2000/svg" width="666.667" height="666.667" viewBox="0 0 500 500"><g fill="#F90504"><path d="M52.1 74.1c-7.7 2.3-14.7 8.5-18.3 16.4l-2.3 5v126l2.3 5.1c2.7 6 7.9 11.3 14.2 14.6 4 2 6.1 2.3 19.3 2.6l14.7.4v-30.9c0-34.4.7-40.3 6.1-50.3 5.5-10.3 15.8-19.4 27.9-24.6 4.3-1.8 8.6-1.9 99.5-2.4l95-.5.3-15.5c.3-19.2-.9-27.4-5.1-33.8-3.5-5.2-10.8-10.6-16.5-12.2-4.9-1.3-232.3-1.2-237.1.1z"/><path d="M125.4 159.1c-10.1 2.9-18.5 12.8-20.4 23.6-1.6 9.7-.9 121.3.8 126.5 1.9 5.7 8.3 13 14.3 16.3l5.4 3 19.8.3 19.7.4v-31.4c0-24.4.4-32.7 1.5-37.7 3.9-16.2 15.3-29.4 31.8-36.4l5.2-2.2 90-.5 90-.5V200c0-19.7-.1-20.7-2.4-25.2-2.9-5.7-8.1-10.9-14.1-14l-4.5-2.3-117-.2c-68.5-.1-118.3.2-120.1.8z"/><path d="M209 243.9c-7.8 2.4-14.9 8.2-18.4 14.9-3.2 6.1-3.6 14.5-3.6 69.6 0 60.5.3 64.9 5.4 72.4 3.5 5.3 10.8 10.6 16.6 12.2 2.6.7 42.7.9 120.2.8l116.3-.3 4.5-2.3c6.3-3.3 11.5-8.6 14.2-14.6l2.3-5.1v-126l-2.3-5.1c-2.7-6-7.9-11.3-14.2-14.6l-4.5-2.3-117-.2c-64.3-.1-118.1.2-119.5.6z"/></g></svg>